# xmcd
#
# Track frame offsets: 
#        150
#        18992
#        35807
#        56645
#        69460
#        90217
#        129230
#        148977
#        176880
#        206787
#
# Disc length: 2976 seconds
#
# Revision: 0
# Processed by: cddbd v1.5.2PL0 Copyright (c) Steve Scherf et al.
# Submitted via: ExactAudioCopy v0.95b4
#
DISCID=910b9e0a
DTITLE=Mark Nomad - Got To Carry On
DYEAR=1995
DGENRE=Blues
TTITLE0=Heirs To The Throne
TTITLE1=Need Your Love
TTITLE2=Honey Thang
TTITLE3=God Don't Never Change
TTITLE4=She's Got To Go
TTITLE5=Double Trouble
TTITLE6=Stranger Blues
TTITLE7=Wah Wah Blues
TTITLE8=Takin' Our Time
TTITLE9=Got To Carry On
EXTD=
EXTT0=
EXTT1=
EXTT2=
EXTT3=
EXTT4=
EXTT5=
EXTT6=
EXTT7=
EXTT8=
EXTT9=
PLAYORDER=
